<svg width="15" height="15" viewBox="0 0 15 15" fill="none" xmlns="http://www.w3.org/2000/svg">
<path d="M9.21875 14.2188H6.40625V9.6875H5.81249C5.44999 9.6875 5.15625 9.39376 5.15625 9.03126V7.84374C5.15625 7.48124 5.44999 7.1875 5.81249 7.1875H6.40625V5.625C6.40625 4.33125 7.45625 3.28125 8.75 3.28125H10.4375C10.8 3.28125 11.0938 3.57499 11.0938 3.93749V5.43751C11.0938 5.80001 10.8 6.09375 10.4375 6.09375H9.21875V7.1875H10.3938C10.5938 7.1875 10.775 7.275 10.9 7.425C11.025 7.575 11.075 7.775 11.0375 7.96875L10.8 9.15625C10.7375 9.4625 10.4688 9.68124 10.1562 9.68124H9.21875V14.2188ZM7.34375 13.2812H8.28125V8.75H9.93126L10.0562 8.125H8.28751V5.81249C8.28751 5.44999 8.58125 5.15625 8.94375 5.15625H10.1625V4.21875H8.75C7.975 4.21875 7.34375 4.85 7.34375 5.625V8.125H6.09375V8.75H7.34375V13.2812Z" fill="#004471"/>
<path d="M9.375 14.2188H5.625C2.23125 14.2188 0.78125 12.7688 0.78125 9.375V5.625C0.78125 2.23125 2.23125 0.78125 5.625 0.78125H9.375C12.7688 0.78125 14.2188 2.23125 14.2188 5.625V9.375C14.2188 12.7688 12.7688 14.2188 9.375 14.2188ZM5.625 1.71875C2.74375 1.71875 1.71875 2.74375 1.71875 5.625V9.375C1.71875 12.2563 2.74375 13.2812 5.625 13.2812H9.375C12.2563 13.2812 13.2812 12.2563 13.2812 9.375V5.625C13.2812 2.74375 12.2563 1.71875 9.375 1.71875H5.625Z" fill="#004471"/>
</svg>
