<svg width="15" height="15" viewBox="0 0 15 15" fill="none" xmlns="http://www.w3.org/2000/svg">
<path d="M7.62539 14.2188C5.10039 14.2188 2.82539 12.825 1.66289 10.5812C1.64414 10.5625 1.63164 10.5375 1.61914 10.5125C1.14414 9.5625 0.900391 8.55 0.900391 7.5C0.900391 6.45 1.14414 5.4375 1.61914 4.4875C2.76914 2.2 5.06914 0.78125 7.61914 0.78125C9.33164 0.78125 10.8879 1.38749 12.1191 2.53124C12.2129 2.61874 12.2691 2.7375 12.2691 2.86875C12.2691 3 12.2191 3.11876 12.1254 3.21251L10.3629 4.9375C10.1816 5.1125 9.90039 5.11875 9.71289 4.94375C9.31914 4.575 8.63789 4.1375 7.61914 4.1375C6.33164 4.1375 5.15039 4.91251 4.61914 6.11876C4.57539 6.21876 4.53789 6.31249 4.50039 6.41874C4.38164 6.78124 4.32539 7.15001 4.32539 7.50626C4.32539 7.86251 4.38789 8.21875 4.50039 8.575C4.50039 8.58125 4.50664 8.58751 4.50664 8.60001C4.95664 9.96251 6.20664 10.875 7.61914 10.875C8.36289 10.875 9.00039 10.6937 9.51914 10.3312C9.99414 10 10.2941 9.55625 10.4566 9.15625H7.62539C7.36914 9.15625 7.15664 8.94375 7.15664 8.6875V6.36875C7.15664 6.1125 7.36914 5.9 7.62539 5.9H13.4941C13.7129 5.9 13.9004 6.04999 13.9504 6.26249C14.0504 6.69999 14.0941 7.11251 14.0941 7.64376C14.0941 9.63126 13.3816 11.3875 12.0816 12.5875C10.9254 13.65 9.38164 14.2188 7.62539 14.2188ZM2.42539 10.0312C2.44414 10.0562 2.46289 10.0875 2.47539 10.1188C3.45664 12.0625 5.43164 13.2812 7.62539 13.2812C9.14414 13.2812 10.4629 12.8 11.4441 11.8937C12.5504 10.875 13.1566 9.3625 13.1566 7.6375C13.1566 7.325 13.1441 7.075 13.1066 6.83125H8.09414V8.21251H11.0691C11.2004 8.21251 11.3316 8.26876 11.4191 8.36876C11.5066 8.46876 11.5504 8.60626 11.5316 8.73751C11.4504 9.43751 11.0129 10.425 10.0566 11.0938C9.38164 11.5625 8.56289 11.8063 7.61914 11.8063C5.81289 11.8063 4.21289 10.6438 3.62539 8.90625C3.62539 8.9 3.61914 8.89375 3.61914 8.8875C3.46289 8.43125 3.38789 7.96876 3.38789 7.50626C3.38789 7.05001 3.46289 6.58749 3.61289 6.12499C3.65664 5.98749 3.70664 5.8625 3.76289 5.7375C4.45039 4.19375 5.96289 3.2 7.61914 3.2C8.68789 3.2 9.47539 3.575 10.0129 3.96875L11.1066 2.90001C10.1191 2.12501 8.91914 1.71875 7.61914 1.71875C5.42539 1.71875 3.44414 2.9375 2.45664 4.90625C2.05039 5.725 1.83789 6.6 1.83789 7.5C1.84414 8.38125 2.03789 9.23124 2.42539 10.0312Z" fill="#004471"/>
</svg>
