<svg width="15" height="15" viewBox="0 0 15 15" fill="none" xmlns="http://www.w3.org/2000/svg">
<path d="M9.375 14.2188H5.625C2.23125 14.2188 0.78125 12.7688 0.78125 9.375V5.625C0.78125 2.23125 2.23125 0.78125 5.625 0.78125H9.375C12.7688 0.78125 14.2188 2.23125 14.2188 5.625V9.375C14.2188 12.7688 12.7688 14.2188 9.375 14.2188ZM5.625 1.71875C2.74375 1.71875 1.71875 2.74375 1.71875 5.625V9.375C1.71875 12.2563 2.74375 13.2812 5.625 13.2812H9.375C12.2563 13.2812 13.2812 12.2563 13.2812 9.375V5.625C13.2812 2.74375 12.2563 1.71875 9.375 1.71875H5.625Z" fill="#004471"/>
<path d="M7.5 10.1562C6.0375 10.1562 4.84375 8.9625 4.84375 7.5C4.84375 6.0375 6.0375 4.84375 7.5 4.84375C8.9625 4.84375 10.1562 6.0375 10.1562 7.5C10.1562 8.9625 8.9625 10.1562 7.5 10.1562ZM7.5 5.78125C6.55 5.78125 5.78125 6.55 5.78125 7.5C5.78125 8.45 6.55 9.21875 7.5 9.21875C8.45 9.21875 9.21875 8.45 9.21875 7.5C9.21875 6.55 8.45 5.78125 7.5 5.78125Z" fill="#004471"/>
<path d="M10.625 4.68756C10.5437 4.68756 10.4625 4.66881 10.3875 4.63756C10.3125 4.60631 10.2438 4.56256 10.1813 4.50631C10.125 4.44381 10.075 4.37506 10.0437 4.30006C10.0125 4.22506 10 4.14381 10 4.06256C10 3.98131 10.0125 3.90006 10.0437 3.82506C10.0812 3.74381 10.125 3.68131 10.1813 3.61881C10.2125 3.59381 10.2438 3.56256 10.275 3.54381C10.3125 3.51881 10.35 3.50006 10.3875 3.48756C10.425 3.46881 10.4625 3.45631 10.5062 3.45006C10.7062 3.40631 10.9187 3.47506 11.0687 3.61881C11.125 3.68131 11.1688 3.74381 11.2 3.82506C11.2313 3.90006 11.25 3.98131 11.25 4.06256C11.25 4.14381 11.2313 4.22506 11.2 4.30006C11.1688 4.37506 11.125 4.44381 11.0687 4.50631C11.0062 4.56256 10.9375 4.60631 10.8625 4.63756C10.7875 4.66881 10.7063 4.68756 10.625 4.68756Z" fill="#004471"/>
</svg>
