<svg width="15" height="15" viewBox="0 0 15 15" fill="none" xmlns="http://www.w3.org/2000/svg">
<path d="M10.625 12.9688H4.375C2.225 12.9688 0.78125 11.525 0.78125 9.375V5.625C0.78125 3.475 2.225 2.03125 4.375 2.03125H10.625C12.775 2.03125 14.2188 3.475 14.2188 5.625V9.375C14.2188 11.525 12.775 12.9688 10.625 12.9688ZM4.375 2.96875C2.7625 2.96875 1.71875 4.0125 1.71875 5.625V9.375C1.71875 10.9875 2.7625 12.0312 4.375 12.0312H10.625C12.2375 12.0312 13.2812 10.9875 13.2812 9.375V5.625C13.2812 4.0125 12.2375 2.96875 10.625 2.96875H4.375Z" fill="#004471"/>
<path d="M6.61878 9.70626C6.43753 9.70626 6.26253 9.66252 6.10628 9.57502C5.74378 9.36877 5.53125 8.95001 5.53125 8.43126V6.58126C5.53125 6.06251 5.73753 5.64377 6.10628 5.43752C6.46878 5.23127 6.93751 5.26876 7.38126 5.53751L8.92503 6.46251C9.35003 6.71876 9.59375 7.10002 9.59375 7.50627C9.59375 7.91252 9.35003 8.29376 8.92503 8.55001L7.38126 9.47502C7.12501 9.62502 6.86253 9.70626 6.61878 9.70626ZM6.61878 6.23127C6.59378 6.23127 6.57502 6.23751 6.56252 6.24376C6.51877 6.26876 6.46875 6.38126 6.46875 6.57501V8.42502C6.46875 8.61252 6.51877 8.72502 6.56252 8.75627C6.61252 8.78127 6.73128 8.76876 6.89378 8.66876L8.43752 7.74377C8.59377 7.65002 8.65003 7.55626 8.65003 7.50001C8.65003 7.44376 8.59377 7.35626 8.43752 7.25626L6.89378 6.33127C6.78128 6.26252 6.68128 6.23127 6.61878 6.23127Z" fill="#004471"/>
</svg>
