<svg width="15" height="15" viewBox="0 0 15 15" fill="none" xmlns="http://www.w3.org/2000/svg">
<path d="M7.6249 14.2188C5.0999 14.2188 2.8249 12.825 1.6624 10.5812C1.64365 10.5625 1.63115 10.5375 1.61865 10.5125C1.14365 9.5625 0.899902 8.55 0.899902 7.5C0.899902 6.45 1.14365 5.4375 1.61865 4.4875C2.76865 2.2 5.06865 0.78125 7.61865 0.78125C9.33115 0.78125 10.8874 1.38749 12.1187 2.53124C12.2124 2.61874 12.2686 2.7375 12.2686 2.86875C12.2686 3 12.2187 3.11876 12.1249 3.21251L10.3624 4.9375C10.1812 5.1125 9.8999 5.11875 9.7124 4.94375C9.31865 4.575 8.6374 4.1375 7.61865 4.1375C6.33115 4.1375 5.1499 4.91251 4.61865 6.11876C4.5749 6.21876 4.5374 6.31249 4.4999 6.41874C4.38115 6.78124 4.3249 7.15001 4.3249 7.50626C4.3249 7.86251 4.3874 8.21875 4.4999 8.575C4.4999 8.58125 4.50615 8.58751 4.50615 8.60001C4.95615 9.96251 6.20615 10.875 7.61865 10.875C8.3624 10.875 8.9999 10.6937 9.51865 10.3312C9.99365 10 10.2937 9.55625 10.4562 9.15625H7.6249C7.36865 9.15625 7.15615 8.94375 7.15615 8.6875V6.36875C7.15615 6.1125 7.36865 5.9 7.6249 5.9H13.4936C13.7124 5.9 13.8999 6.04999 13.9499 6.26249C14.0499 6.69999 14.0937 7.11251 14.0937 7.64376C14.0937 9.63126 13.3812 11.3875 12.0812 12.5875C10.9249 13.65 9.38115 14.2188 7.6249 14.2188ZM2.4249 10.0312C2.44365 10.0562 2.4624 10.0875 2.4749 10.1188C3.45615 12.0625 5.43115 13.2812 7.6249 13.2812C9.14365 13.2812 10.4624 12.8 11.4436 11.8937C12.5499 10.875 13.1562 9.3625 13.1562 7.6375C13.1562 7.325 13.1437 7.075 13.1062 6.83125H8.09365V8.21251H11.0687C11.1999 8.21251 11.3311 8.26876 11.4186 8.36876C11.5061 8.46876 11.5499 8.60626 11.5311 8.73751C11.4499 9.43751 11.0124 10.425 10.0561 11.0938C9.38115 11.5625 8.5624 11.8063 7.61865 11.8063C5.8124 11.8063 4.2124 10.6438 3.6249 8.90625C3.6249 8.9 3.61865 8.89375 3.61865 8.8875C3.4624 8.43125 3.3874 7.96876 3.3874 7.50626C3.3874 7.05001 3.4624 6.58749 3.6124 6.12499C3.65615 5.98749 3.70615 5.8625 3.7624 5.7375C4.4499 4.19375 5.9624 3.2 7.61865 3.2C8.6874 3.2 9.4749 3.575 10.0124 3.96875L11.1061 2.90001C10.1186 2.12501 8.91865 1.71875 7.61865 1.71875C5.4249 1.71875 3.44365 2.9375 2.45615 4.90625C2.0499 5.725 1.8374 6.6 1.8374 7.5C1.84365 8.38125 2.0374 9.23124 2.4249 10.0312Z" fill="white"/>
</svg>
