<svg width="15" height="15" viewBox="0 0 15 15" fill="none" xmlns="http://www.w3.org/2000/svg">
<path d="M9.375 14.2188H5.625C2.23125 14.2188 0.78125 12.7688 0.78125 9.375V5.625C0.78125 2.23125 2.23125 0.78125 5.625 0.78125H9.375C12.7688 0.78125 14.2188 2.23125 14.2188 5.625V9.375C14.2188 12.7688 12.7688 14.2188 9.375 14.2188ZM5.625 1.71875C2.74375 1.71875 1.71875 2.74375 1.71875 5.625V9.375C1.71875 12.2563 2.74375 13.2812 5.625 13.2812H9.375C12.2563 13.2812 13.2812 12.2563 13.2812 9.375V5.625C13.2812 2.74375 12.2563 1.71875 9.375 1.71875H5.625Z" fill="white"/>
<path d="M7.5 10.1562C6.0375 10.1562 4.84375 8.9625 4.84375 7.5C4.84375 6.0375 6.0375 4.84375 7.5 4.84375C8.9625 4.84375 10.1562 6.0375 10.1562 7.5C10.1562 8.9625 8.9625 10.1562 7.5 10.1562ZM7.5 5.78125C6.55 5.78125 5.78125 6.55 5.78125 7.5C5.78125 8.45 6.55 9.21875 7.5 9.21875C8.45 9.21875 9.21875 8.45 9.21875 7.5C9.21875 6.55 8.45 5.78125 7.5 5.78125Z" fill="white"/>
<path d="M10.625 4.6875C10.5437 4.6875 10.4625 4.66875 10.3875 4.6375C10.3125 4.60625 10.2438 4.5625 10.1813 4.50625C10.125 4.44375 10.075 4.375 10.0437 4.3C10.0125 4.225 10 4.14375 10 4.0625C10 3.98125 10.0125 3.9 10.0437 3.825C10.0812 3.74375 10.125 3.68125 10.1813 3.61875C10.2125 3.59375 10.2438 3.5625 10.275 3.54375C10.3125 3.51875 10.35 3.5 10.3875 3.4875C10.425 3.46875 10.4625 3.45625 10.5062 3.45C10.7062 3.40625 10.9187 3.475 11.0687 3.61875C11.125 3.68125 11.1688 3.74375 11.2 3.825C11.2313 3.9 11.25 3.98125 11.25 4.0625C11.25 4.14375 11.2313 4.225 11.2 4.3C11.1688 4.375 11.125 4.44375 11.0687 4.50625C11.0062 4.5625 10.9375 4.60625 10.8625 4.6375C10.7875 4.66875 10.7063 4.6875 10.625 4.6875Z" fill="white"/>
</svg>
