<svg width="67" height="67" viewBox="0 0 67 67" fill="none" xmlns="http://www.w3.org/2000/svg">
<rect x="0.5" y="0.5" width="66" height="66" rx="33" fill="white" fill-opacity="0.26"/>
<path d="M38.8925 47.7274C39.1933 47.7274 39.4942 47.6166 39.7317 47.3791C40.1908 46.9199 40.1908 46.1599 39.7317 45.7007L29.4083 35.3774C28.6483 34.6174 28.6483 33.3824 29.4083 32.6224L39.7317 22.2991C40.1908 21.8399 40.1908 21.0799 39.7317 20.6207C39.2725 20.1616 38.5125 20.1616 38.0533 20.6207L27.73 30.9441C26.9225 31.7516 26.4633 32.8441 26.4633 33.9999C26.4633 35.1557 26.9067 36.2482 27.73 37.0557L38.0533 47.3791C38.2908 47.6007 38.5917 47.7274 38.8925 47.7274Z" fill="white"/>
<rect x="0.5" y="0.5" width="66" height="66" rx="33" stroke="white"/>
</svg>
