<svg width="24" height="24" viewBox="0 0 24 24" fill="none" xmlns="http://www.w3.org/2000/svg">
<path d="M18.8752 7.98365C18.9704 7.8626 19.0139 7.70881 18.9961 7.55583C18.9784 7.40285 18.9008 7.26311 18.7804 7.16708C18.1457 6.6996 17.4246 6.36259 16.6588 6.17554C15.485 5.88391 13.6623 5.811 11.6792 7.13063C8.58792 9.19392 6.05073 7.24728 5.94866 7.15979C5.82574 7.06598 5.67125 7.02344 5.51763 7.04111C5.36401 7.05879 5.22321 7.13529 5.12481 7.25457C5.0296 7.37562 4.98614 7.52941 5.00389 7.68239C5.02165 7.83537 5.09918 7.97511 5.21959 8.07114C5.85431 8.53862 6.57541 8.87563 7.3412 9.06268C7.81098 9.17966 8.29336 9.23843 8.77748 9.23766C9.79819 9.23766 11.023 8.9679 12.3208 8.10759C15.4121 6.0443 17.9493 7.99094 18.0513 8.07843C18.1743 8.17224 18.3288 8.21478 18.4824 8.19711C18.636 8.17943 18.7768 8.10292 18.8752 7.98365ZM5.94866 11.2426C6.05073 11.3301 8.58792 13.2767 11.6792 11.2135C13.6623 9.89383 15.485 9.96674 16.6588 10.2584C17.4246 10.4454 18.1457 10.7824 18.7804 11.2499C18.9008 11.3459 18.9784 11.4857 18.9961 11.6387C19.0139 11.7916 18.9704 11.9454 18.8752 12.0665C18.7768 12.1858 18.636 12.2623 18.4824 12.2799C18.3288 12.2976 18.1743 12.2551 18.0513 12.1613C17.9493 12.0738 15.4121 10.1271 12.3208 12.1904C11.023 13.0507 9.79819 13.3205 8.77748 13.3205C8.29336 13.3213 7.81098 13.2625 7.3412 13.1455C6.57541 12.9585 5.85431 12.6215 5.21959 12.154C5.09918 12.0579 5.02165 11.9182 5.00389 11.7652C4.98614 11.6122 5.0296 11.4585 5.12481 11.3374C5.22321 11.2181 5.36401 11.1416 5.51763 11.1239C5.67125 11.1063 5.82574 11.1488 5.94866 11.2426ZM5.94866 15.3255C6.05073 15.4129 8.58792 17.3596 11.6792 15.2963C13.6623 13.9767 15.485 14.0496 16.6588 14.3412C17.4246 14.5282 18.1457 14.8653 18.7804 15.3327C18.9008 15.4288 18.9784 15.5685 18.9961 15.7215C19.0139 15.8745 18.9704 16.0283 18.8752 16.1493C18.7768 16.2686 18.636 16.3451 18.4824 16.3628C18.3288 16.3804 18.1743 16.3379 18.0513 16.2441C17.9493 16.1566 15.4121 14.21 12.3208 16.2733C11.023 17.1336 9.79819 17.4033 8.77748 17.4033C7.49769 17.4024 6.25147 16.9938 5.21959 16.2368C5.09918 16.1408 5.02165 16.001 5.00389 15.8481C4.98614 15.6951 5.0296 15.5413 5.12481 15.4202C5.22321 15.301 5.36401 15.2244 5.51763 15.2068C5.67125 15.1891 5.82574 15.2316 5.94866 15.3255Z" fill="white"/>
</svg>
