<svg width="19" height="19" viewBox="0 0 19 19" fill="none" xmlns="http://www.w3.org/2000/svg">
<path d="M9.5 17.9119C5.0525 17.9119 1.4375 14.2969 1.4375 9.84937C1.4375 5.40187 5.0525 1.78687 9.5 1.78687C13.9475 1.78687 17.5625 5.40187 17.5625 9.84937C17.5625 14.2969 13.9475 17.9119 9.5 17.9119ZM9.5 2.91187C5.675 2.91187 2.5625 6.02437 2.5625 9.84937C2.5625 13.6744 5.675 16.7869 9.5 16.7869C13.325 16.7869 16.4375 13.6744 16.4375 9.84937C16.4375 6.02437 13.325 2.91187 9.5 2.91187Z" fill="#004471"/>
<path d="M11.375 10.4119H6.875C6.5675 10.4119 6.3125 10.1569 6.3125 9.84937C6.3125 9.54187 6.5675 9.28687 6.875 9.28687H11.375C11.6825 9.28687 11.9375 9.54187 11.9375 9.84937C11.9375 10.1569 11.6825 10.4119 11.375 10.4119Z" fill="#004471"/>
<path d="M9.87508 12.6618C9.73258 12.6618 9.59008 12.6093 9.47758 12.4968C9.26008 12.2793 9.26008 11.9193 9.47758 11.7018L11.3301 9.84932L9.47758 7.99682C9.26008 7.77932 9.26008 7.41932 9.47758 7.20182C9.69508 6.98432 10.0551 6.98432 10.2726 7.20182L12.5226 9.45182C12.7401 9.66932 12.7401 10.0293 12.5226 10.2468L10.2726 12.4968C10.1601 12.6093 10.0176 12.6618 9.87508 12.6618Z" fill="#004471"/>
</svg>
