<svg width="67" height="67" viewBox="0 0 67 67" fill="none" xmlns="http://www.w3.org/2000/svg">
<rect x="-0.5" y="0.5" width="66" height="66" rx="33" transform="matrix(-1 0 0 1 66 0)" fill="white" fill-opacity="0.26"/>
<path d="M28.1075 47.7274C27.8067 47.7274 27.5058 47.6166 27.2683 47.3791C26.8092 46.9199 26.8092 46.1599 27.2683 45.7007L37.5917 35.3774C38.3517 34.6174 38.3517 33.3824 37.5917 32.6224L27.2683 22.2991C26.8092 21.8399 26.8092 21.0799 27.2683 20.6207C27.7275 20.1616 28.4875 20.1616 28.9467 20.6207L39.27 30.9441C40.0775 31.7516 40.5367 32.8441 40.5367 33.9999C40.5367 35.1557 40.0933 36.2482 39.27 37.0557L28.9467 47.3791C28.7092 47.6007 28.4083 47.7274 28.1075 47.7274Z" fill="white"/>
<rect x="-0.5" y="0.5" width="66" height="66" rx="33" transform="matrix(-1 0 0 1 66 0)" stroke="white"/>
</svg>
