<svg width="77" height="20" viewBox="0 0 77 20" fill="none" xmlns="http://www.w3.org/2000/svg">
<g clip-path="url(#clip0_180_677)">
<path d="M0.0814199 11.7508C0.0814199 10.5761 1.1864 9.68045 2.88459 9.68045C3.69879 9.68045 4.55952 9.90144 5.0713 10.3551C5.28066 10.5295 5.36208 10.7389 5.36208 11.0297C5.36208 11.4252 5.14109 11.809 4.81541 11.809C4.60604 11.809 4.43157 11.6462 4.23384 11.4484C3.83406 11.0494 3.29791 10.8166 2.73338 10.7971C2.12855 10.7971 1.68656 11.0878 1.68656 11.5764C1.68656 13.2164 5.6994 13.0536 5.6994 15.752C5.6994 16.4383 5.45514 17.0199 5.00151 17.4502C4.35367 17.998 3.52268 18.2805 2.67523 18.2412C1.80287 18.2412 0.930514 18.0085 0.314048 17.5317C0.0697885 17.3456 0 17.1246 0 16.8454C0 16.4616 0.220997 16.0661 0.558308 16.0661C1.0352 16.0661 1.41903 17.1362 2.77991 17.1362C3.48943 17.1362 4.10589 16.764 4.10589 15.9498C4.09426 14.1004 0.0814199 14.3446 0.0814199 11.7508ZM13.0156 9.76187C13.1784 9.76187 13.2366 9.80839 13.2366 9.97123V10.6459C13.2366 10.7971 13.1784 10.8552 13.0156 10.8552H11.992C11.3174 10.8552 10.9219 10.8436 10.6776 10.8087V16.9036C10.6776 17.7875 11.1429 17.6712 11.1429 17.9388C11.1429 18.1132 10.9335 18.1598 10.1891 18.1598H9.58429C8.82825 18.1598 8.63051 18.1132 8.63051 17.9388C8.63051 17.6712 9.09577 17.7875 9.09577 16.9036V10.8087C8.85151 10.832 8.45604 10.8552 7.78142 10.8552H6.75785C6.59501 10.8552 6.53686 10.7971 6.53686 10.6459V9.97123C6.53686 9.80839 6.59501 9.76187 6.75785 9.76187H13.0156ZM16.505 16.8919C16.505 17.7759 16.9702 17.6596 16.9702 17.9271C16.9702 18.1016 16.7609 18.1481 16.0165 18.1481H15.4116C14.6556 18.1481 14.4579 18.1016 14.4579 17.9271C14.4579 17.6596 14.9231 17.7759 14.9231 16.8919V11.0181C14.9231 10.1341 14.4579 10.2504 14.4579 9.98286C14.4579 9.80839 14.6672 9.76187 15.4116 9.76187H16.0165C16.7725 9.76187 16.9702 9.80839 16.9702 9.98286C16.9702 10.2504 16.505 10.1341 16.505 11.0181V16.8919ZM21.1459 10.7389H20.6923V13.9492C22.5766 13.9492 23.1814 13.3327 23.1814 12.2975C23.1814 11.0762 22.344 10.7389 21.1459 10.7389ZM23.1116 14.6005L24.9261 16.985C25.1512 17.3088 25.4452 17.5789 25.7869 17.7759C25.8683 17.8341 25.8915 17.869 25.8915 17.9388C25.8915 18.1249 25.4728 18.1481 24.7749 18.1481C23.9956 18.1481 23.8328 18.0434 23.4606 17.5433L21.4832 14.9262H20.6923V16.8919C20.6923 17.7759 21.1576 17.6596 21.1576 17.9271C21.1576 18.1016 20.9482 18.1481 20.2038 18.1481H19.5989C18.8429 18.1481 18.6452 18.1016 18.6452 17.9271C18.6452 17.6596 19.1104 17.7759 19.1104 16.8919V11.0181C19.1104 10.1341 18.6452 10.2504 18.6452 9.98286C18.6452 9.80839 18.8545 9.76187 19.5989 9.76187H20.6923C21.9601 9.76187 22.8325 9.88981 23.3908 10.1341C24.1817 10.4946 24.8098 11.1227 24.8098 12.2626C24.8214 13.5421 24.1934 14.1818 23.1116 14.6005ZM32.2772 17.0664C32.44 17.0664 32.4982 17.1129 32.4982 17.2758V17.9504C32.4982 18.1016 32.44 18.1598 32.2772 18.1598H28.0201C27.264 18.1598 27.0663 18.1132 27.0663 17.9388C27.0663 17.6712 27.5316 17.7875 27.5316 16.9036V11.0297C27.5316 10.1457 27.0663 10.262 27.0663 9.9945C27.0663 9.82002 27.2757 9.7735 28.0201 9.7735H28.6249C29.381 9.7735 29.5787 9.82002 29.5787 9.9945C29.5787 10.262 29.1134 10.1457 29.1134 11.0297V17.1246C29.3577 17.1013 29.7532 17.078 30.4278 17.078H32.2772V17.0664ZM35.9295 16.8919C35.9295 17.7759 36.3947 17.6596 36.3947 17.9271C36.3947 18.1016 36.1853 18.1481 35.4409 18.1481H34.8361C34.0801 18.1481 33.8823 18.1016 33.8823 17.9271C33.8823 17.6596 34.3476 17.7759 34.3476 16.8919V11.0181C34.3476 10.1341 33.8823 10.2504 33.8823 9.98286C33.8823 9.80839 34.0917 9.76187 34.8361 9.76187H35.4409C36.197 9.76187 36.3947 9.80839 36.3947 9.98286C36.3947 10.2504 35.9295 10.1341 35.9295 11.0181V16.8919ZM44.1761 15.3566V11.0181C44.1761 10.1341 43.7109 10.2504 43.7109 9.98286C43.7109 9.80839 43.9202 9.76187 44.6646 9.76187H44.8973C45.6533 9.76187 45.8511 9.80839 45.8511 9.98286C45.8511 10.2504 45.3858 10.1341 45.3858 11.0181V17.9039C45.3858 18.0783 45.3044 18.1481 44.9089 18.1481H44.8275C44.4669 18.1481 44.4204 18.1016 44.2692 17.9155L40.3378 12.9256L39.7795 12.1928H39.7562V16.8919C39.7562 17.7759 40.2214 17.6596 40.2214 17.9271C40.2214 18.1016 40.0121 18.1481 39.2677 18.1481H39.035C38.279 18.1481 38.0813 18.1016 38.0813 17.9271C38.0813 17.6596 38.5465 17.7759 38.5465 16.8919V11.0181C38.5465 10.1341 38.0813 10.2504 38.0813 9.98286C38.0813 9.80839 38.2906 9.76187 39.035 9.76187H39.1165C39.7678 9.76187 39.8492 9.88981 40.2447 10.3783L43.5946 14.6238L44.1529 15.3566H44.1761ZM51.3295 10.8087C50.1547 10.8087 49.0381 11.7741 49.0381 13.8678C49.0381 16.1591 50.0267 17.1362 51.6319 17.1362C52.0506 17.1362 52.4461 17.0548 52.8183 16.9036V15.3217C52.8183 14.8332 52.7252 14.682 52.4926 14.5075C52.3879 14.4261 52.353 14.3795 52.353 14.2981C52.353 14.112 52.6205 14.0655 53.3417 14.0655H53.5627C54.2838 14.0655 54.3536 14.112 54.3536 14.4028V17.0431C54.3536 17.3107 54.2722 17.4968 53.993 17.648C53.2952 18.0318 52.3763 18.2295 51.4574 18.2295C48.7705 18.2295 47.398 16.6128 47.398 13.9841C47.398 11.4252 48.8403 9.68045 51.3643 9.68045C52.4112 9.68045 53.2952 9.94797 53.7488 10.3667C53.8547 10.4533 53.9384 10.5639 53.993 10.6893C54.0476 10.8147 54.0716 10.9513 54.0628 11.0878C54.0628 11.5066 53.8302 11.8788 53.4813 11.8788C52.8648 11.8788 52.6438 10.8087 51.3295 10.8087ZM77 10.8087V0.27063H60.3554V11.0181C60.4233 11.7079 60.6206 12.3787 60.937 12.9954L61.0998 13.2978C61.3208 13.6933 61.6 14.1236 61.9606 14.5773L62.1234 14.7866C62.5191 15.2463 62.9425 15.6814 63.3912 16.0894C64.6009 17.1827 66.2991 18.3459 68.6719 19.509C71.0447 18.3459 72.7429 17.1827 73.9526 16.0894L74.2666 15.7986C74.6272 15.4496 74.9412 15.1123 75.2204 14.7866L75.3832 14.5773C75.7438 14.1236 76.0346 13.6933 76.244 13.3094L76.4068 13.007C76.6627 12.4836 76.8139 12.0416 76.8953 11.6927C76.9651 11.4019 76.9884 11.1809 76.9884 11.0297C77.0116 10.8785 77.0116 10.8087 77 10.8087ZM64.0077 16.0777C63.4145 15.5776 62.8911 15.0542 62.4491 14.5307C62.6236 14.4028 62.8213 14.2981 63.147 14.2981C63.5657 14.2981 63.7634 14.461 63.9844 14.6471C64.2171 14.8332 64.4846 15.0542 64.9964 15.0542C65.5082 15.0542 65.7757 14.8448 66.0083 14.6471C66.1944 14.4959 66.3572 14.3563 66.648 14.3214V15.7986C66.2642 15.8451 66.0432 16.0312 65.8455 16.194C65.6128 16.3801 65.4151 16.543 65.008 16.543C64.5893 16.543 64.3915 16.3801 64.1705 16.194L64.0077 16.0777ZM68.6835 19.0437C67.3641 18.4027 66.1031 17.6476 64.9149 16.7872H64.9847C65.4965 16.7872 65.764 16.5779 65.9967 16.3801C66.1828 16.2289 66.3456 16.0894 66.6364 16.0545V16.7872L66.6946 16.8221C67.0551 17.0548 67.4041 17.0082 67.7414 16.9733C68.0438 16.9385 68.3346 16.9152 68.6137 17.0897L68.6835 17.1362L68.7533 17.0897C69.0325 16.9152 69.3233 16.9385 69.6257 16.9733C69.963 17.0082 70.3119 17.0431 70.6725 16.8221L70.7307 16.7872V16.0545C71.0098 16.101 71.1843 16.2289 71.3704 16.3801C71.603 16.5662 71.8705 16.7872 72.3823 16.7872H72.4521C71.2623 17.6451 70.0015 18.4 68.6835 19.0437ZM66.8923 16.6477V14.0306C67.0319 14.0888 67.1714 14.1004 67.3227 14.112L67.7414 14.0888C68.0205 14.0539 68.2997 14.0306 68.5556 14.1702V16.7756C68.4276 16.7291 68.2997 16.7058 68.1601 16.6942H68.0903L67.7065 16.7175C67.4273 16.7523 67.1598 16.7872 66.8923 16.6477ZM68.8115 16.7756V14.1702C69.079 14.0306 69.3465 14.0655 69.6257 14.0888C69.7653 14.1004 69.9048 14.1236 70.0444 14.112C70.184 14.112 70.3236 14.0888 70.4631 14.0306V16.6477C70.1956 16.7872 69.9281 16.7523 69.6489 16.7291C69.4977 16.7175 69.3465 16.6942 69.1953 16.7058C69.079 16.7058 68.951 16.7291 68.8115 16.7756ZM73.3594 16.0777L73.2198 16.1824C72.9872 16.3685 72.7894 16.5314 72.3823 16.5314C71.9636 16.5314 71.7659 16.3685 71.5449 16.1824C71.3225 15.9738 71.0431 15.8362 70.7423 15.7869V14.3098C71.0214 14.3563 71.1959 14.4842 71.382 14.6354C71.6147 14.8215 71.8822 15.0425 72.394 15.0425C72.9057 15.0425 73.1733 14.8332 73.4059 14.6354C73.6385 14.4493 73.8363 14.2865 74.2433 14.2865C74.4965 14.277 74.7444 14.3597 74.9412 14.5191C74.476 15.0542 73.9526 15.5659 73.3594 16.0777ZM75.7322 13.4258C75.5346 13.7389 75.3211 14.0417 75.0924 14.333C74.8487 14.1378 74.5439 14.0348 74.2317 14.0422C73.7199 14.0422 73.4524 14.2516 73.2198 14.4493C72.9872 14.6354 72.7894 14.7983 72.3823 14.7983C71.9636 14.7983 71.7659 14.6354 71.5449 14.4493C71.3225 14.2408 71.0431 14.1031 70.7423 14.0539V13.5886L70.6143 13.67L70.5329 13.7165C70.2538 13.891 69.963 13.8678 69.6606 13.8329C69.3465 13.798 69.0208 13.7631 68.6835 13.9492C68.3462 13.7631 68.0205 13.798 67.7065 13.8329C67.4041 13.8678 67.1133 13.891 66.8341 13.7165L66.7527 13.67L66.6248 13.5886V14.0539C66.2409 14.1004 66.0199 14.2865 65.8222 14.4493C65.5896 14.6354 65.3918 14.7983 64.9847 14.7983C64.566 14.7983 64.3683 14.6354 64.1473 14.4493C63.9146 14.2632 63.6471 14.0422 63.1353 14.0422C62.7282 14.0422 62.4724 14.1818 62.2746 14.333C62.0422 14.0446 61.8285 13.7416 61.6349 13.4258L61.5535 13.2978C61.9024 13.2397 62.1118 13.0652 62.2979 12.914C62.5305 12.7279 62.7282 12.565 63.1353 12.565C63.5541 12.565 63.7518 12.7279 63.9728 12.914C64.2054 13.1001 64.473 13.3211 64.9847 13.3211C65.4965 13.3211 65.764 13.1117 65.9967 12.914C66.2293 12.7279 66.427 12.565 66.8341 12.565C67.2529 12.565 67.4506 12.7279 67.6716 12.914C67.9042 13.1001 68.1718 13.3211 68.6835 13.3211C69.1953 13.3211 69.4628 13.1117 69.6955 12.914C69.9281 12.7279 70.1258 12.565 70.5329 12.565C70.9517 12.565 71.1494 12.7279 71.3704 12.914C71.603 13.1001 71.8705 13.3211 72.3823 13.3211C72.8941 13.3211 73.1616 13.1117 73.3943 12.914C73.6269 12.7279 73.8246 12.565 74.2317 12.565C74.6505 12.565 74.8482 12.7279 75.0692 12.914C75.2553 13.0652 75.4646 13.2397 75.8136 13.2978L75.7322 13.4258ZM76.6045 10.8087V11.0064C76.5929 11.1227 76.5813 11.3088 76.5231 11.5531C76.4417 11.902 76.2905 12.4138 75.9415 13.0419C75.6042 13.0187 75.4298 12.8675 75.2204 12.7046C74.9878 12.5185 74.7202 12.2975 74.2085 12.2975C73.6967 12.2975 73.4292 12.5069 73.1965 12.7046C72.9639 12.8907 72.7662 13.0536 72.3591 13.0536C71.9403 13.0536 71.7426 12.8907 71.5216 12.7046C71.289 12.5185 71.0214 12.2975 70.5097 12.2975C69.9979 12.2975 69.7304 12.5069 69.4977 12.7046C69.2651 12.8907 69.0674 13.0536 68.6603 13.0536C68.2415 13.0536 68.0438 12.8907 67.8228 12.7046C67.5902 12.5185 67.3227 12.2975 66.8109 12.2975C66.2991 12.2975 66.0316 12.5069 65.7989 12.7046C65.5663 12.8907 65.3686 13.0536 64.9615 13.0536C64.5427 13.0536 64.345 12.8907 64.124 12.7046C63.8914 12.5185 63.6239 12.2975 63.1121 12.2975C62.6003 12.2975 62.3328 12.5069 62.1002 12.7046C61.8908 12.8675 61.7163 13.0187 61.379 13.0419C61.1205 12.5734 60.925 12.0728 60.7974 11.5531C60.7393 11.3088 60.7276 11.1227 60.716 11.0064V9.92471C60.716 9.64555 60.937 9.42456 61.2162 9.42456C61.4953 9.42456 61.7163 9.64555 61.7163 9.92471V11.5531H63.1935V9.59903C63.1935 9.31987 63.4145 9.09888 63.6936 9.09888C63.9728 9.09888 64.1938 9.31987 64.1938 9.59903V11.5531H65.7059V9.27335C65.7059 8.99419 65.9269 8.7732 66.206 8.7732C66.4852 8.7732 66.7062 8.99419 66.7062 9.27335V11.5531H68.1834V8.93604C68.1834 8.65688 68.4044 8.43589 68.6835 8.43589C68.9627 8.43589 69.1837 8.65688 69.1837 8.93604V11.5531H70.6609V9.27335C70.6609 8.99419 70.8819 8.7732 71.161 8.7732C71.4402 8.7732 71.6612 8.99419 71.6612 9.27335V11.5531H73.1384V9.59903C73.1384 9.31987 73.3594 9.09888 73.6385 9.09888C73.9177 9.09888 74.1387 9.31987 74.1387 9.59903V11.5531H75.6159V9.92471C75.6159 9.64555 75.8369 9.42456 76.116 9.42456C76.3952 9.42456 76.6162 9.64555 76.6162 9.92471L76.6045 10.8087ZM76.6045 9.1803C76.4697 9.08951 76.3126 9.03714 76.1503 9.02881C75.9879 9.02048 75.8264 9.05649 75.6829 9.133C75.5395 9.2095 75.4195 9.32361 75.336 9.46308C75.2525 9.60256 75.2085 9.76213 75.2088 9.92471V11.1576H74.5225V9.59903C74.5225 9.36149 74.4281 9.13369 74.2602 8.96573C74.0922 8.79777 73.8644 8.70341 73.6269 8.70341C73.3894 8.70341 73.1616 8.79777 72.9936 8.96573C72.8256 9.13369 72.7313 9.36149 72.7313 9.59903V11.1576H72.045V9.27335C72.045 9.03581 71.9507 8.80801 71.7827 8.64005C71.6147 8.47209 71.3869 8.37773 71.1494 8.37773C70.9119 8.37773 70.6841 8.47209 70.5161 8.64005C70.3481 8.80801 70.2538 9.03581 70.2538 9.27335V11.1576H69.5675V8.93604C69.5675 8.6985 69.4732 8.4707 69.3052 8.30274C69.1372 8.13478 68.9094 8.04042 68.6719 8.04042C68.4344 8.04042 68.2066 8.13478 68.0386 8.30274C67.8706 8.4707 67.7763 8.6985 67.7763 8.93604V11.1576H67.1017V9.27335C67.1017 9.03581 67.0073 8.80801 66.8393 8.64005C66.6714 8.47209 66.4436 8.37773 66.206 8.37773C65.9685 8.37773 65.7407 8.47209 65.5727 8.64005C65.4048 8.80801 65.3104 9.03581 65.3104 9.27335V11.1576H64.6242V9.59903C64.6242 9.36149 64.5298 9.13369 64.3618 8.96573C64.1939 8.79777 63.9661 8.70341 63.7285 8.70341C63.491 8.70341 63.2632 8.79777 63.0952 8.96573C62.9273 9.13369 62.8329 9.36149 62.8329 9.59903V11.1576H62.1467V9.92471C62.1469 9.76213 62.1029 9.60256 62.0194 9.46308C61.9359 9.32361 61.816 9.2095 61.6725 9.133C61.5291 9.05649 61.3675 9.02048 61.2052 9.02881C61.0428 9.03714 60.8858 9.08951 60.7509 9.1803V8.7732C63.1635 7.383 65.8991 6.65125 68.6835 6.65125C71.468 6.65125 74.2036 7.383 76.6162 8.7732L76.6045 9.1803ZM67.9391 2.30613L68.2415 2.28287L68.4276 2.27123V1.89903H68.9394V2.27123L69.1255 2.28287L69.4279 2.30613L69.6373 2.32939V1.93392L70.184 1.98045V3.08543C69.1849 3.01575 68.1822 3.01575 67.1831 3.08543V1.98045L67.7298 1.93392V2.32939L67.9391 2.30613ZM67.2994 3.46927C68.217 3.40012 69.1385 3.40012 70.056 3.46927L69.8583 3.86474L70.1607 6.2957C69.1781 6.20286 68.1889 6.20286 67.2063 6.2957L67.5088 3.86474L67.2994 3.46927ZM76.6045 8.38936C74.7551 7.34253 72.6964 6.67954 70.5678 6.43528L70.2654 3.93453L70.5795 3.31806V1.61987L70.405 1.59661C70.088 1.56179 69.7699 1.53851 69.4512 1.52682L69.2418 1.51519H69.1372L68.6835 1.50356L68.2183 1.51519H68.1136L67.9042 1.52682L66.9504 1.59661L66.776 1.61987V3.31806L67.09 3.93453L66.7876 6.43528C64.6591 6.67954 62.6003 7.34253 60.7509 8.38936V0.666098H76.6045V8.38936Z" fill="#006430"/>
<path d="M72.7312 5.14422C73.0336 5.10932 73.3244 5.08606 73.6036 5.26053L73.6734 5.30706L73.7431 5.26053C74.0223 5.08606 74.3131 5.10932 74.6155 5.14422C74.9528 5.17911 75.3018 5.21401 75.6623 4.99301L75.7205 4.95811V1.73621L75.5228 1.86415C75.2436 2.03862 74.9528 2.01536 74.6504 1.98047C74.3363 1.94557 74.0107 1.91068 73.6734 2.09678C73.336 1.91068 73.0104 1.94557 72.6963 1.98047C72.3939 2.01536 72.1031 2.03862 71.824 1.86415L71.6262 1.73621V4.94648L71.6844 4.98138C72.045 5.21401 72.3939 5.17911 72.7312 5.14422ZM73.8013 2.32941C74.0688 2.18983 74.3363 2.22473 74.6155 2.24799C74.8947 2.28288 75.1738 2.30615 75.453 2.20146V4.80691C75.1854 4.94648 74.9179 4.91159 74.6388 4.88833C74.3596 4.85343 74.0805 4.83017 73.8013 4.93485V2.32941ZM71.8821 2.18983C72.1729 2.30615 72.4521 2.27125 72.7196 2.23636C72.9987 2.20146 73.2779 2.1782 73.5338 2.31778V4.92322C73.3826 4.86506 73.2197 4.8418 73.0685 4.8418L72.6847 4.86506C72.4055 4.89996 72.1264 4.92322 71.8705 4.78364L71.8821 2.18983Z" fill="#006430"/>
<path d="M72.1263 2.82956C72.3357 2.95751 72.5334 2.93424 72.7196 2.92261C72.894 2.89935 73.0452 2.88772 73.2081 2.98077L73.2546 2.9924C73.2779 2.9924 73.3128 2.98077 73.3244 2.95751C73.3477 2.92261 73.336 2.86446 73.3011 2.84119C73.0918 2.71325 72.894 2.73651 72.7079 2.74814C72.5334 2.7714 72.3822 2.78304 72.2194 2.68998C72.2003 2.67972 72.1783 2.67643 72.1571 2.68068C72.1358 2.68493 72.1167 2.69644 72.1031 2.71325C72.0682 2.75977 72.0798 2.8063 72.1263 2.82956ZM72.1263 3.55071C72.3357 3.67866 72.5334 3.65539 72.7196 3.64376C72.894 3.6205 73.0452 3.60887 73.2081 3.70192L73.2546 3.71355C73.2779 3.71355 73.3128 3.70192 73.3244 3.67866C73.3477 3.64376 73.336 3.5856 73.3011 3.56234C73.0918 3.4344 72.894 3.45766 72.7079 3.46929C72.5334 3.49255 72.3822 3.50418 72.2194 3.41113C72.2003 3.40087 72.1783 3.39758 72.1571 3.40183C72.1358 3.40607 72.1167 3.41759 72.1031 3.4344C72.0682 3.48092 72.0798 3.52745 72.1263 3.55071ZM72.7196 4.36491C72.894 4.34165 73.0452 4.33002 73.2081 4.42307L73.2546 4.4347C73.2779 4.4347 73.3128 4.42307 73.3244 4.39981C73.3477 4.36491 73.336 4.30675 73.3011 4.28349C73.0918 4.15554 72.894 4.17881 72.7079 4.19044C72.5334 4.2137 72.3822 4.22533 72.2194 4.13228C72.1845 4.10902 72.1264 4.12065 72.1031 4.15554C72.0798 4.19044 72.0915 4.2486 72.1263 4.27186C72.3241 4.41144 72.5334 4.38817 72.7196 4.36491ZM74.6387 4.36491C74.8248 4.38817 75.0226 4.41144 75.2319 4.27186C75.2668 4.2486 75.2785 4.20207 75.2552 4.15554C75.2319 4.12065 75.1854 4.10902 75.1389 4.13228C74.9877 4.22533 74.8248 4.2137 74.6504 4.19044C74.4643 4.16718 74.2665 4.14391 74.0572 4.28349C74.0223 4.30675 74.0106 4.35328 74.0339 4.39981C74.0455 4.42307 74.0804 4.4347 74.1037 4.4347L74.1502 4.42307C74.3014 4.33002 74.4643 4.35328 74.6387 4.36491ZM74.1037 3.72518L74.1502 3.71355C74.3014 3.6205 74.4643 3.63213 74.6387 3.65539C74.8248 3.67866 75.0226 3.70192 75.2319 3.56234C75.2668 3.53908 75.2785 3.49255 75.2552 3.44603C75.2319 3.41113 75.1854 3.3995 75.1389 3.42276C74.9877 3.51582 74.8248 3.50418 74.6504 3.48092C74.4643 3.45766 74.2665 3.4344 74.0572 3.57397C74.0223 3.59724 74.0106 3.64376 74.0339 3.69029L74.1037 3.72518ZM74.1037 2.9924L74.1502 2.98077C74.3014 2.88772 74.4643 2.89935 74.6387 2.92261C74.8248 2.94588 75.0226 2.96914 75.2319 2.82956C75.2668 2.8063 75.2785 2.75977 75.2552 2.71325C75.2319 2.67835 75.1854 2.66672 75.1389 2.68998C74.9877 2.78304 74.8248 2.7714 74.6504 2.74814C74.4643 2.72488 74.2665 2.70162 74.0572 2.84119C74.0223 2.86446 74.0106 2.91098 74.0339 2.95751C74.0455 2.98077 74.0804 2.9924 74.1037 2.9924ZM62.8096 5.14422C63.112 5.10932 63.4028 5.08606 63.6819 5.26053L63.7517 5.30706L63.8215 5.26053C64.1007 5.08606 64.3915 5.10932 64.6939 5.14422C65.0312 5.17911 65.3801 5.21401 65.7407 4.99301L65.7989 4.95811V1.73621L65.6011 1.86415C65.322 2.03862 65.0312 2.01536 64.7288 1.98047C64.4147 1.94557 64.089 1.91068 63.7517 2.09678C63.4144 1.91068 63.0887 1.94557 62.7747 1.98047C62.4723 2.01536 62.1815 2.03862 61.9023 1.86415L61.7046 1.73621V4.94648L61.7627 4.98138C62.1233 5.21401 62.4723 5.17911 62.8096 5.14422ZM63.8797 2.32941C64.1472 2.18983 64.4147 2.22473 64.6939 2.24799C64.973 2.28288 65.2522 2.30615 65.5313 2.20146V4.80691C65.2638 4.94648 64.9963 4.91159 64.7171 4.88833C64.438 4.85343 64.1588 4.83017 63.8797 4.93485V2.32941ZM61.9605 2.18983C62.2513 2.30615 62.5304 2.27125 62.7979 2.23636C63.0771 2.20146 63.3563 2.1782 63.6121 2.31778V4.92322C63.4609 4.86506 63.2981 4.8418 63.1469 4.8418L62.763 4.86506C62.4839 4.89996 62.2047 4.92322 61.9488 4.78364L61.9605 2.18983Z" fill="#006430"/>
<path d="M62.2047 2.82954C62.4141 2.95748 62.6118 2.93422 62.7979 2.92259C62.9724 2.89932 63.1236 2.88769 63.2864 2.98074L63.3329 2.99238C63.3562 2.99238 63.3911 2.98074 63.4027 2.95748C63.426 2.92259 63.4144 2.86443 63.3795 2.84117C63.1701 2.71322 62.9724 2.73648 62.7863 2.74812C62.6118 2.77138 62.4606 2.78301 62.2977 2.68996C62.2787 2.6797 62.2566 2.67641 62.2354 2.68065C62.2142 2.6849 62.1951 2.69642 62.1814 2.71322C62.1465 2.75975 62.1582 2.80627 62.2047 2.82954ZM62.2047 3.55068C62.4141 3.67863 62.6118 3.65537 62.7979 3.64374C62.9724 3.62047 63.1236 3.60884 63.2864 3.70189L63.3329 3.71352C63.3562 3.71352 63.3911 3.70189 63.4027 3.67863C63.426 3.64374 63.4144 3.58558 63.3795 3.56232C63.1701 3.43437 62.9724 3.45763 62.7863 3.46926C62.6118 3.49253 62.4606 3.50416 62.2977 3.41111C62.2787 3.40085 62.2566 3.39756 62.2354 3.4018C62.2142 3.40605 62.1951 3.41757 62.1814 3.43437C62.1465 3.4809 62.1582 3.52742 62.2047 3.55068ZM62.7979 4.36488C62.9724 4.34162 63.1236 4.32999 63.2864 4.42304L63.3329 4.43467C63.3562 4.43467 63.3911 4.42304 63.4027 4.39978C63.426 4.36488 63.4144 4.30673 63.3795 4.28346C63.1701 4.15552 62.9724 4.17878 62.7863 4.19041C62.6118 4.21367 62.4606 4.22531 62.2977 4.13225C62.2628 4.10899 62.2047 4.12062 62.1814 4.15552C62.1582 4.19041 62.1698 4.24857 62.2047 4.27183C62.4024 4.41141 62.6118 4.38815 62.7979 4.36488ZM64.7171 4.36488C64.9032 4.38815 65.1009 4.41141 65.3103 4.27183C65.3452 4.24857 65.3568 4.20204 65.3335 4.15552C65.3103 4.12062 65.2637 4.10899 65.2172 4.13225C65.066 4.22531 64.9032 4.21367 64.7287 4.19041C64.5426 4.16715 64.3449 4.14389 64.1355 4.28346C64.1006 4.30673 64.089 4.35325 64.1122 4.39978C64.1239 4.42304 64.1588 4.43467 64.182 4.43467L64.2286 4.42304C64.3798 4.32999 64.5426 4.35325 64.7171 4.36488ZM64.182 3.72516L64.2286 3.71352C64.3798 3.62047 64.5426 3.6321 64.7171 3.65537C64.9032 3.67863 65.1009 3.70189 65.3103 3.56232C65.3452 3.53905 65.3568 3.49253 65.3335 3.446C65.3103 3.41111 65.2637 3.39948 65.2172 3.42274C65.066 3.51579 64.9032 3.50416 64.7287 3.4809C64.5426 3.45763 64.3449 3.43437 64.1355 3.57395C64.1006 3.59721 64.089 3.64374 64.1122 3.69026L64.182 3.72516ZM64.182 2.99238L64.2286 2.98074C64.3798 2.88769 64.5426 2.89932 64.7171 2.92259C64.9032 2.94585 65.1009 2.96911 65.3103 2.82954C65.3452 2.80627 65.3568 2.75975 65.3335 2.71322C65.3103 2.67833 65.2637 2.6667 65.2172 2.68996C65.066 2.78301 64.9032 2.77138 64.7287 2.74812C64.5426 2.72485 64.3449 2.70159 64.1355 2.84117C64.1006 2.86443 64.089 2.91096 64.1122 2.95748C64.1239 2.98074 64.1588 2.99238 64.182 2.99238ZM69.0788 5.21398L68.9276 4.00431H68.4391L68.2879 5.21398H69.0788ZM67.1364 14.6819C67.3458 14.8099 67.5435 14.7866 67.7296 14.775L67.8227 14.7634C67.9622 14.7517 68.0902 14.7517 68.2181 14.8332L68.2646 14.8448C68.2879 14.8448 68.3228 14.8332 68.3344 14.8099L68.3461 14.7401C68.3461 14.7168 68.3344 14.7052 68.3112 14.6936C68.2344 14.6428 68.1467 14.6109 68.0553 14.6005C67.939 14.5773 67.8227 14.6005 67.718 14.6122L67.6366 14.6238C67.497 14.6354 67.3574 14.6354 67.2295 14.554C67.2104 14.5437 67.1883 14.5405 67.1671 14.5447C67.1459 14.5489 67.1268 14.5605 67.1131 14.5773C67.0782 14.6005 67.0899 14.6587 67.1364 14.6819ZM67.1364 15.4031C67.3458 15.531 67.5435 15.5078 67.7296 15.4961C67.9041 15.4729 68.0553 15.4613 68.2181 15.5543L68.2646 15.5659C68.2879 15.5659 68.3228 15.5543 68.3344 15.531C68.3577 15.4961 68.3461 15.438 68.3112 15.4147C68.1018 15.2868 67.9041 15.31 67.718 15.3217C67.5435 15.3449 67.3923 15.3566 67.2295 15.2635C67.2104 15.2533 67.1883 15.25 67.1671 15.2542C67.1459 15.2585 67.1268 15.27 67.1131 15.2868C67.0782 15.3217 67.0899 15.3798 67.1364 15.4031ZM67.8576 16.2057C67.9739 16.194 68.0902 16.2057 68.2065 16.2755L68.253 16.2871C68.2763 16.2871 68.3112 16.2755 68.3228 16.2522C68.3461 16.2173 68.3344 16.1591 68.2995 16.1359L68.2065 16.0893C68.032 16.0079 67.8575 16.0312 67.7063 16.0428H67.6714C67.5086 16.0545 67.369 16.0661 67.2178 15.973C67.1988 15.9628 67.1767 15.9595 67.1555 15.9637C67.1342 15.968 67.1152 15.9795 67.1015 15.9963L67.0899 16.0545L67.1015 16.0777L67.1364 16.1126C67.2527 16.1824 67.3574 16.2057 67.4621 16.2173L67.718 16.2057H67.8576ZM69.4976 16.2057L69.6372 16.2173C69.7186 16.2289 69.8116 16.2406 69.9047 16.2289C70.0094 16.2289 70.1257 16.194 70.2304 16.1242L70.2652 16.0893L70.2769 16.0661L70.2652 16.0079C70.242 15.973 70.1955 15.9614 70.1489 15.9847C70.0094 16.0777 69.8581 16.0661 69.6953 16.0545H69.6604C69.5092 16.0428 69.3347 16.0196 69.1603 16.101L69.0672 16.1475C69.0323 16.1708 69.0207 16.2173 69.0439 16.2638C69.0556 16.2871 69.0905 16.2987 69.1137 16.2987L69.1603 16.2871C69.2649 16.2057 69.3813 16.194 69.4976 16.2057ZM69.1137 15.5659L69.1603 15.5543C69.3115 15.4613 69.4743 15.4729 69.6488 15.4961C69.8349 15.5194 70.0326 15.5427 70.242 15.4031C70.2769 15.3798 70.2885 15.3333 70.2652 15.2868C70.242 15.2519 70.1955 15.2403 70.1489 15.2635C69.9977 15.3566 69.8349 15.3449 69.6604 15.3217C69.4743 15.2984 69.2766 15.2752 69.0672 15.4147C69.0323 15.438 69.0207 15.4845 69.0439 15.531C69.0556 15.5543 69.0788 15.5659 69.1137 15.5659ZM69.1137 14.8448L69.1603 14.8332C69.2882 14.7517 69.4162 14.7517 69.5557 14.7634L69.6488 14.775C69.8349 14.7983 70.0326 14.8215 70.242 14.6819C70.2769 14.6587 70.2885 14.6122 70.2652 14.5656C70.242 14.5307 70.1955 14.5191 70.1489 14.5424C70.021 14.6238 69.8814 14.6238 69.7418 14.6122L69.6604 14.6005C69.5557 14.5889 69.4394 14.5773 69.3231 14.5889C69.2316 14.5992 69.1439 14.6311 69.0672 14.6819C69.0439 14.6936 69.0323 14.7168 69.0323 14.7285L69.0439 14.7983C69.0556 14.8332 69.0788 14.8448 69.1137 14.8448Z" fill="#006430"/>
<path d="M49.3754 6.87732C49.1312 6.87732 48.8869 6.84242 48.6659 6.73774C48.4868 6.65738 48.3287 6.53691 48.2036 6.38564C48.0786 6.23437 47.99 6.05636 47.9447 5.86539C47.8633 5.5746 47.8633 5.28382 47.9099 4.9814C47.9564 4.62083 48.0843 4.28351 48.2937 3.9811C48.5961 3.5391 49.0148 3.27158 49.5499 3.1669C49.8756 3.09711 50.2012 3.10874 50.5153 3.22506C50.9573 3.3879 51.2364 3.70194 51.3644 4.15557C51.4789 4.73293 51.3927 5.33208 51.1201 5.85375C50.7712 6.44696 50.2594 6.7959 49.5731 6.86569L49.3754 6.87732ZM48.7473 5.45829L48.7822 5.7607C48.8171 5.94681 48.8985 6.09801 49.0614 6.2027C49.3056 6.36554 49.6895 6.33064 49.9221 6.14454C50.0994 6.00203 50.2391 5.81835 50.3292 5.6095C50.4408 5.36761 50.5078 5.10754 50.5269 4.84182C50.5502 4.64409 50.5502 4.44635 50.5037 4.24862C50.4768 4.10155 50.4034 3.967 50.2943 3.86478C50.1867 3.78041 50.057 3.72893 49.9208 3.71655C49.7846 3.70417 49.6477 3.73141 49.5266 3.795C49.3124 3.90231 49.1404 4.07844 49.0381 4.29515C48.8358 4.64866 48.7352 5.05119 48.7473 5.45829ZM53.2719 3.72521H54.1559C54.249 3.72521 54.2722 3.70194 54.2955 3.60889L54.342 3.34137C54.3653 3.21343 54.3537 3.19016 54.2141 3.19016H53.4464C53.4348 3.19016 53.365 3.20179 53.3417 3.15527C53.3185 3.12037 53.3301 3.03895 53.3417 2.9808C53.4464 2.36433 53.4813 2.20149 53.7139 2.12007C54.028 2.02702 54.3886 2.23639 54.4816 2.25965C54.5514 2.28291 54.5979 2.25965 54.6212 2.18986L54.7026 1.92234C54.7259 1.82929 54.691 1.77113 54.6096 1.71297L54.47 1.65482C54.1443 1.55013 53.8419 1.51524 53.4697 1.60829C53.277 1.65974 53.1007 1.75987 52.9579 1.89908C52.6555 2.17823 52.6206 2.43412 52.5392 2.96917L52.5043 3.19016H52.0041C51.9576 3.20179 51.9227 3.22506 51.9111 3.27158L51.8413 3.64379C51.8296 3.70194 51.8529 3.72521 51.9111 3.72521L52.0041 3.73684H52.5624" fill="#006430"/>
<path d="M53.2718 3.7019C53.1671 5.13257 53.0159 6.20266 52.9461 6.58649C52.9112 6.7726 52.8763 6.97033 52.7484 7.23785C52.667 7.40069 52.6321 7.47048 52.539 7.58679C52.318 7.86595 51.7132 8.06368 51.3875 8.01716C51.3293 8.00552 51.2363 8.00552 51.2014 7.91247C51.1781 7.86595 51.1898 7.78453 51.213 7.74963C51.3061 7.61006 51.5154 7.70311 51.6783 7.66821C52.0621 7.57516 52.1668 6.70281 52.1901 6.48181C52.2948 5.5513 52.3878 4.59752 52.4692 3.62048L53.2718 3.7019Z" fill="#006430"/>
<path d="M0.895673 1.60829C1.3493 1.60829 1.38419 1.63156 1.38419 1.81766V5.10935C1.38419 5.53971 1.43072 5.7956 1.62845 5.94681C1.80292 6.08639 2.07045 6.15618 2.44265 6.15618C2.80323 6.15618 3.04749 6.08639 3.21033 5.94681C3.41969 5.77234 3.47785 5.51645 3.47785 5.10935V1.81766C3.47785 1.63156 3.50111 1.60829 3.95474 1.60829C4.40836 1.60829 4.43163 1.63156 4.43163 1.81766V5.17914C4.43163 5.69092 4.32694 6.08639 4.00126 6.40044C3.65232 6.72612 3.15217 6.87733 2.45428 6.87733C1.73314 6.87733 1.19809 6.72612 0.860779 6.41207C0.511836 6.08639 0.395522 5.66766 0.395522 5.17914V2.3876C0.395522 1.82929 0.104736 1.91071 0.104736 1.73624C0.104736 1.61992 0.232682 1.59666 0.697939 1.59666L0.895673 1.60829ZM9.44477 5.09772V2.3876C9.44477 1.82929 9.15399 1.91071 9.15399 1.73624C9.15399 1.61992 9.28193 1.59666 9.74719 1.59666H9.88677C10.352 1.59666 10.48 1.61992 10.48 1.73624C10.48 1.91071 10.1892 1.82929 10.1892 2.3876V6.67959C10.1892 6.79591 10.1427 6.8308 9.88677 6.8308H9.84024C9.61924 6.8308 9.58435 6.80754 9.4913 6.69122L7.0487 3.58563L6.69975 3.12038H6.68812V6.0515C6.68812 6.6098 6.97891 6.52838 6.97891 6.70286C6.97891 6.81917 6.85096 6.84243 6.38571 6.84243H6.24613C5.78087 6.84243 5.65293 6.81917 5.65293 6.70286C5.65293 6.52838 5.94371 6.6098 5.94371 6.0515V2.3876C5.94371 1.82929 5.65293 1.91071 5.65293 1.73624C5.65293 1.61992 5.78087 1.59666 6.24613 1.59666H6.29265C6.69975 1.59666 6.75791 1.67808 7.00217 1.9805L9.0842 4.63246L9.44477 5.09772ZM12.8411 6.0515C12.8411 6.6098 13.1319 6.52838 13.1319 6.70286C13.1319 6.81917 13.004 6.84243 12.5387 6.84243H12.1665C11.7013 6.84243 11.5733 6.81917 11.5733 6.70286C11.5733 6.52838 11.8641 6.6098 11.8641 6.0515V2.3876C11.8641 1.82929 11.5733 1.91071 11.5733 1.73624C11.5733 1.61992 11.7013 1.59666 12.1665 1.59666H12.5387C13.004 1.59666 13.1319 1.61992 13.1319 1.73624C13.1319 1.91071 12.8411 1.82929 12.8411 2.3876V6.0515ZM17.8078 2.48065C17.8543 2.36434 17.8892 2.25965 17.8892 2.17823C17.8892 2.07355 17.8427 1.99213 17.7496 1.89908C17.6798 1.84092 17.6566 1.80603 17.6566 1.7595C17.6566 1.63156 17.7729 1.61992 18.3893 1.61992C18.9942 1.61992 19.1221 1.63156 19.1221 1.7595C19.1221 1.80603 19.0989 1.84092 19.0407 1.88745C18.8394 2.03592 18.689 2.24317 18.6103 2.48065L17.0285 6.63307C16.9587 6.81917 16.8773 6.84243 16.7493 6.84243H16.6097C16.4818 6.84243 16.4004 6.81917 16.3306 6.63307L14.5975 2.3527C14.5563 2.24447 14.4939 2.14552 14.414 2.06165C14.3341 1.97778 14.2383 1.91065 14.1322 1.86418C14.0624 1.82929 14.0508 1.78276 14.0508 1.74787C14.0508 1.61992 14.3183 1.60829 14.7371 1.60829C15.2954 1.60829 15.4233 1.67808 15.5978 2.13171L16.3073 3.93458L16.8191 5.2373H16.8307L17.296 3.93458L17.8078 2.48065ZM21.2856 6.19107C21.4368 6.17944 21.681 6.16781 22.0998 6.16781H23.449C23.5537 6.16781 23.5886 6.19107 23.5886 6.29576V6.71449C23.5886 6.80754 23.5537 6.84243 23.449 6.84243H20.5993C20.1341 6.84243 20.0061 6.81917 20.0061 6.70286C20.0061 6.52838 20.2969 6.6098 20.2969 6.0515V2.3876C20.2969 1.82929 20.0061 1.91071 20.0061 1.73624C20.0061 1.61992 20.1341 1.59666 20.5993 1.59666H23.3676C23.4723 1.59666 23.5072 1.61992 23.5072 1.72461V2.14334C23.5072 2.23639 23.4723 2.27128 23.3676 2.27128H22.0998C21.681 2.27128 21.4368 2.25965 21.2856 2.24802V3.795H22.9954C23.1001 3.795 23.135 3.81826 23.135 3.92295V4.31841C23.135 4.41147 23.1001 4.44636 22.9954 4.44636H21.2856V6.19107ZM27.3223 4.62083L28.4505 6.10965C28.6134 6.33065 28.7529 6.44696 28.9856 6.59817C29.0321 6.63307 29.0554 6.65633 29.0554 6.70286C29.0554 6.81917 28.7878 6.8308 28.3575 6.8308C27.869 6.8308 27.7643 6.76101 27.5433 6.4586L26.3103 4.81857H25.8218V6.0515C25.8218 6.6098 26.1126 6.52838 26.1126 6.70286C26.1126 6.81917 25.9847 6.84243 25.5194 6.84243H25.1472C24.6819 6.84243 24.554 6.81917 24.554 6.70286C24.554 6.52838 24.8448 6.6098 24.8448 6.0515V2.3876C24.8448 1.82929 24.554 1.91071 24.554 1.73624C24.554 1.61992 24.6819 1.59666 25.1472 1.59666H25.8335C26.6244 1.59666 27.1711 1.67808 27.52 1.82929C28.0085 2.05029 28.404 2.44576 28.404 3.15527C28.3924 3.96947 27.9969 4.36494 27.3223 4.62083ZM26.101 2.22476H25.8218V4.22536C26.9966 4.22536 27.3688 3.84153 27.3688 3.19017C27.3688 2.42249 26.8454 2.22476 26.101 2.22476ZM29.8114 2.85286C29.8114 2.12008 30.4977 1.56177 31.5561 1.56177C32.0679 1.56177 32.6029 1.70134 32.917 1.9805C33.0449 2.09681 33.0915 2.21313 33.0915 2.39923C33.0915 2.64349 32.9519 2.88775 32.7542 2.88775C32.6262 2.88775 32.5215 2.78307 32.3936 2.66675C32.1407 2.4192 31.805 2.27416 31.4514 2.25965C31.0792 2.25965 30.8001 2.43412 30.8001 2.74817C30.8001 3.77174 33.3008 3.66705 33.3008 5.35361C33.3008 5.78397 33.1496 6.14455 32.8705 6.41207C32.5332 6.74938 31.9748 6.90059 31.4282 6.90059C30.8815 6.90059 30.3348 6.76101 29.951 6.4586C29.7998 6.34228 29.7532 6.2027 29.7532 6.02823C29.7532 5.79561 29.8928 5.53971 30.1022 5.53971C30.4046 5.53971 30.6372 6.2027 31.4863 6.2027C31.9283 6.2027 32.3122 5.97008 32.3122 5.45829C32.3122 4.31841 29.8114 4.46962 29.8114 2.85286ZM35.4759 6.0515C35.4759 6.6098 35.7667 6.52838 35.7667 6.70286C35.7667 6.81917 35.6387 6.84243 35.1735 6.84243H34.8013C34.336 6.84243 34.2081 6.81917 34.2081 6.70286C34.2081 6.52838 34.4989 6.6098 34.4989 6.0515V2.3876C34.4989 1.82929 34.2081 1.91071 34.2081 1.73624C34.2081 1.61992 34.336 1.59666 34.8013 1.59666H35.1735C35.6387 1.59666 35.7667 1.61992 35.7667 1.73624C35.7667 1.91071 35.4759 1.82929 35.4759 2.3876V6.0515ZM40.71 1.60829C40.8147 1.60829 40.8496 1.63156 40.8496 1.73624V2.15497C40.8496 2.24802 40.8147 2.28292 40.71 2.28292H40.0703C39.6516 2.28292 39.4073 2.27128 39.2561 2.25965V6.0515C39.2561 6.6098 39.5469 6.52838 39.5469 6.70286C39.5469 6.81917 39.419 6.84243 38.9537 6.84243H38.5815C38.1162 6.84243 37.9883 6.81917 37.9883 6.70286C37.9883 6.52838 38.2791 6.6098 38.2791 6.0515V2.25965C38.1279 2.27128 37.8836 2.28292 37.4649 2.28292H36.8251C36.7205 2.28292 36.6856 2.24802 36.6856 2.15497V1.73624C36.6856 1.63156 36.7205 1.60829 36.8251 1.60829H40.71ZM46.4792 1.74787C46.4792 1.7944 46.456 1.82929 46.3978 1.87582C46.1997 2.03562 46.0405 2.2385 45.9326 2.46902L44.56 5.14425V6.0515C44.56 6.6098 44.8508 6.52838 44.8508 6.70286C44.8508 6.81917 44.7229 6.84243 44.2576 6.84243H43.8854C43.4202 6.84243 43.2922 6.81917 43.2922 6.70286C43.2922 6.52838 43.583 6.6098 43.583 6.0515V5.13261L42.164 2.3527C42.0701 2.1409 41.9057 1.96824 41.6987 1.86418C41.6289 1.82929 41.6173 1.78276 41.6173 1.74787C41.6173 1.61992 41.8732 1.60829 42.3036 1.60829C42.8619 1.60829 42.9898 1.70134 43.1992 2.13171L43.6063 2.94591C43.8226 3.37284 44.032 3.80326 44.2344 4.23699H44.246C44.4205 3.86479 44.6415 3.42279 44.8974 2.94591L45.1416 2.46902C45.1998 2.3527 45.2347 2.24802 45.2347 2.1666C45.2347 2.06192 45.1881 1.9805 45.0951 1.88745C45.0253 1.82929 45.002 1.7944 45.002 1.74787C45.002 1.61992 45.1184 1.60829 45.7465 1.60829C46.3397 1.60829 46.4792 1.63156 46.4792 1.74787Z" fill="#006430"/>
</g>
<defs>
<clipPath id="clip0_180_677">
<rect width="77" height="19.3082" fill="white" transform="translate(0 0.27063)"/>
</clipPath>
</defs>
</svg>
